<svg id="Layer_1" data-name="Layer 1" xmlns="http://www.w3.org/2000/svg" viewBox="0 0 40.91 40.91"><defs><style>.cls-1{fill:#499ad4;}.cls-2{fill:#fff;}</style></defs><rect class="cls-1" width="40.91" height="40.91" rx="6.09"/><path class="cls-2" d="M101.24,113.82l3.51-26.6h5.51a25.23,25.23,0,0,1,5,.36A6.73,6.73,0,0,1,118,88.81a5.93,5.93,0,0,1,1.7,2.09,6.14,6.14,0,0,1,.57,2.67,6.23,6.23,0,0,1-1.51,4.29,6.41,6.41,0,0,1-4.11,2.07,6.57,6.57,0,0,1,4,1.94,5.5,5.5,0,0,1,1.45,3.91,8,8,0,0,1-.87,3.75,7.5,7.5,0,0,1-2.53,2.76,8.25,8.25,0,0,1-3.11,1.18,38.12,38.12,0,0,1-6.19.35Zm6.07-4.4h1.09c2.32,0,3.92-.29,4.81-.86a3.24,3.24,0,0,0,1.34-2.94,2.78,2.78,0,0,0-1.11-2.5,8.26,8.26,0,0,0-4.18-.73h-1Zm2.35-17.86L108.8,98h.6a8.22,8.22,0,0,0,4.29-.8,3,3,0,0,0,1.18-2.71,2.6,2.6,0,0,0-1-2.29,7.43,7.43,0,0,0-3.77-.65Z" transform="translate(-91.25 -79.55)"/></svg>