<svg id="Layer_1" data-name="Layer 1" xmlns="http://www.w3.org/2000/svg" viewBox="0 0 115.86 40.91"><defs><style>.cls-1{fill:#fff;}.cls-2{fill:#499ad4;}</style></defs><path class="cls-1" d="M91.55,92.17h4.74v9.55a4.72,4.72,0,0,1,1.7-1.21,6.24,6.24,0,0,1,2-.51h.39a6.11,6.11,0,0,1,4.82,2.12,7.59,7.59,0,0,1,0,10,6.22,6.22,0,0,1-4.86,2.11h-.31a6,6,0,0,1-2.11-.51,3.68,3.68,0,0,1-1.61-1.39l0,0v1.48H91.55ZM96.94,105a3.19,3.19,0,0,0,0,4.25,3.36,3.36,0,0,0,4.48,0,3,3,0,0,0,.8-2.14,3.12,3.12,0,0,0-.8-2.13,2.84,2.84,0,0,0-2.25-.9A2.92,2.92,0,0,0,96.94,105Z" transform="translate(-42.07 -82.73)"/><path class="cls-1" d="M114.18,113.75h-4.74V92.17h4.74Z" transform="translate(-42.07 -82.73)"/><path class="cls-1" d="M124.34,100a9.08,9.08,0,0,1,5.63,1.89,6.93,6.93,0,0,1,0,10.49,9.48,9.48,0,0,1-11.24,0,6.15,6.15,0,0,1-2.42-5.24,6.26,6.26,0,0,1,2.4-5.26,9,9,0,0,1,5.63-1.86Zm-2.23,5a3.19,3.19,0,0,0,0,4.25,3.36,3.36,0,0,0,4.48,0,3,3,0,0,0,.79-2.14,3.11,3.11,0,0,0-.79-2.13,2.84,2.84,0,0,0-2.25-.9A2.92,2.92,0,0,0,122.11,105Z" transform="translate(-42.07 -82.73)"/><path class="cls-1" d="M139.68,113.75H135v-9.43h-1.54v-3.9H135v-4h4.73v4h2.68v3.9h-2.68Z" transform="translate(-42.07 -82.73)"/><path class="cls-1" d="M148.6,102.13h.05a4.66,4.66,0,0,1,1.86-1.66,5.74,5.74,0,0,1,2.4-.47,4.52,4.52,0,0,1,3.86,1.53,6.45,6.45,0,0,1,1.16,4v8.21H153.2v-7.28a4.67,4.67,0,0,0,0-.52,3.29,3.29,0,0,0-.46-1.49,1.77,1.77,0,0,0-1.64-.69,2,2,0,0,0-1.95.92,4.33,4.33,0,0,0-.52,2.17v6.89h-4.74V100.42h4.74Z" transform="translate(-42.07 -82.73)"/><rect class="cls-2" width="40.91" height="40.91" rx="6.09"/><path class="cls-1" d="M52.06,117l3.51-26.6h5.5a25.09,25.09,0,0,1,5.05.36A6.75,6.75,0,0,1,68.81,92a5.74,5.74,0,0,1,1.7,2.09,6.15,6.15,0,0,1,.58,2.67,6.28,6.28,0,0,1-1.51,4.29,6.46,6.46,0,0,1-4.11,2.07,6.57,6.57,0,0,1,4,1.93A5.56,5.56,0,0,1,70.9,109a8,8,0,0,1-.87,3.74,7.34,7.34,0,0,1-2.52,2.77,8.48,8.48,0,0,1-3.11,1.18,38.58,38.58,0,0,1-6.2.34Zm6.07-4.4h1.09c2.31,0,3.92-.28,4.81-.86a3.21,3.21,0,0,0,1.33-2.93,2.77,2.77,0,0,0-1.11-2.5,8.21,8.21,0,0,0-4.18-.74h-1Zm2.34-17.86-.85,6.45h.6a8.12,8.12,0,0,0,4.29-.8,3,3,0,0,0,1.18-2.7,2.56,2.56,0,0,0-1-2.29A7.27,7.27,0,0,0,61,94.74Z" transform="translate(-42.07 -82.73)"/></svg>